<?xml version="1.0" encoding="UTF-8"?>
<svg width="51px" height="38px" viewBox="0 0 51 38" version="1.1" xmlns="http://www.w3.org/2000/svg" xmlns:xlink="http://www.w3.org/1999/xlink">
    <title>VfM</title>
    <g id="Page-1" stroke="none" stroke-width="1" fill="none" fill-rule="evenodd">
        <g id="Artboard" transform="translate(-10.000000, -17.000000)" fill="#FFFFFF" fill-rule="nonzero">
            <path d="M20.17,45.41 C20.59,45.41 20.835,45.305 20.905,45.095 C20.975,44.885 21.01,44.63 21.01,44.33 L21.01,44.33 L21.01,43.49 C21.01,43.35 21.045,43.135 21.115,42.845 C21.185,42.555 21.28,42.225 21.4,41.855 C21.52,41.485 21.66,41.08 21.82,40.64 C21.98,40.2 22.14,39.77 22.3,39.35 C22.66,38.35 23.09,37.26 23.59,36.08 C23.85,35.78 24.065,35.445 24.235,35.075 C24.405,34.705 24.55,34.37 24.67,34.07 C24.73,34.01 24.795,33.935 24.865,33.845 C24.935,33.755 25,33.66 25.06,33.56 C25.14,33.46 25.21,33.35 25.27,33.23 C25.33,33.03 25.415,32.815 25.525,32.585 C25.635,32.355 25.75,32.14 25.87,31.94 C25.99,31.74 26.105,31.56 26.215,31.4 C26.325,31.24 26.4,31.13 26.44,31.07 L26.44,31.07 L26.59,30.41 C26.79,29.99 27.13,29.725 27.61,29.615 C28.09,29.505 28.56,29.41 29.02,29.33 C29.18,29.29 29.34,29.25 29.5,29.21 C29.66,29.17 29.8,29.12 29.92,29.06 C30.04,29 30.14,28.905 30.22,28.775 C30.3,28.645 30.34,28.47 30.34,28.25 C30.34,27.91 30.25,27.67 30.07,27.53 C29.89,27.39 29.68,27.32 29.44,27.32 L29.44,27.32 L28.84,27.41 L28.27,27.32 C27.97,27.32 27.755,27.335 27.625,27.365 L27.625,27.365 L27.235,27.455 C27.105,27.485 26.935,27.51 26.725,27.53 C26.515,27.55 26.19,27.56 25.75,27.56 C25.71,27.54 25.66,27.52 25.6,27.5 C25.56,27.48 25.51,27.46 25.45,27.44 C25.39,27.42 25.33,27.41 25.27,27.41 L25.27,27.41 L23.83,27.41 C23.77,27.41 23.665,27.415 23.515,27.425 C23.365,27.435 23.205,27.465 23.035,27.515 C22.865,27.565 22.72,27.65 22.6,27.77 C22.48,27.89 22.42,28.05 22.42,28.25 C22.42,28.45 22.485,28.6 22.615,28.7 C22.745,28.8 22.88,28.87 23.02,28.91 C23.14,28.99 23.265,29.065 23.395,29.135 C23.525,29.205 23.59,29.35 23.59,29.57 C23.59,29.87 23.48,30.305 23.26,30.875 C23.04,31.445 22.79,32.04 22.51,32.66 C22.23,33.28 21.945,33.855 21.655,34.385 C21.365,34.915 21.15,35.28 21.01,35.48 C20.89,35.84 20.77,36.16 20.65,36.44 C20.55,36.68 20.435,36.9 20.305,37.1 C20.175,37.3 20.05,37.4 19.93,37.4 C19.79,37.4 19.63,37.29 19.45,37.07 C19.27,36.85 19.085,36.575 18.895,36.245 C18.705,35.915 18.525,35.55 18.355,35.15 C18.185,34.75 18.03,34.375 17.89,34.025 C17.75,33.675 17.635,33.375 17.545,33.125 L17.50375,33.0079167 C17.44125,32.8259722 17.41,32.71 17.41,32.66 C17.41,32.5 17.37,32.345 17.29,32.195 C17.21,32.045 17.12,31.9 17.02,31.76 C16.92,31.6 16.8,31.45 16.66,31.31 C16.6,31.31 16.525,31.25 16.435,31.13 C16.345,31.01 16.265,30.86 16.195,30.68 C16.125,30.5 16.06,30.31 16,30.11 C15.94,29.91 15.91,29.73 15.91,29.57 C15.91,29.37 16.03,29.22 16.27,29.12 C16.51,29.02 16.78,28.92 17.08,28.82 C17.38,28.72 17.65,28.58 17.89,28.4 C18.13,28.22 18.25,27.94 18.25,27.56 C18.25,27.32 18.175,27.18 18.025,27.14 C17.875,27.1 17.67,27.08 17.41,27.08 L17.41,27.08 L16.51,27.08 C16.43,27.08 16.325,27.09 16.195,27.11 C16.065,27.13 15.93,27.15 15.79,27.17 L15.79,27.17 L15.25,27.23 L14.5,27.08 L13.42,27.08 L13.42,27.08 L12.76,27.26 C12.36,27.36 12.02,27.41 11.74,27.41 L11.74,27.41 L11.17,27.41 C10.61,27.41 10.33,27.57 10.33,27.89 C10.33,28.27 10.83,28.72 11.83,29.24 C12.29,29.5 12.645,29.96 12.895,30.62 C13.145,31.28 13.32,31.99 13.42,32.75 C13.66,33.05 13.88,33.32 14.08,33.56 C14.24,33.78 14.395,34 14.545,34.22 C14.695,34.44 14.79,34.61 14.83,34.73 L14.83,34.73 L15.1,35.48 C15.14,35.58 15.18,35.715 15.22,35.885 C15.26,36.055 15.3,36.22 15.34,36.38 C15.4,36.58 15.45,36.78 15.49,36.98 C15.79,37.42 16.025,37.835 16.195,38.225 C16.365,38.615 16.52,38.99 16.66,39.35 C16.8,39.71 16.935,40.065 17.065,40.415 C17.195,40.765 17.37,41.13 17.59,41.51 C17.59,41.63 17.645,41.805 17.755,42.035 C17.865,42.265 17.92,42.45 17.92,42.59 C18.02,42.75 18.09,42.915 18.13,43.085 C18.17,43.255 18.21,43.45 18.25,43.67 C18.25,43.87 18.34,44.09 18.52,44.33 C18.64,44.45 18.715,44.59 18.745,44.75 C18.775,44.91 18.92,45.05 19.18,45.17 C19.34,45.29 19.505,45.36 19.675,45.38 C19.845,45.4 20.01,45.41 20.17,45.41 Z M25.1,54.02 C25.22,54.02 25.325,54.015 25.415,54.005 C25.505,53.995 25.59,53.97 25.67,53.93 C25.71,53.89 25.775,53.88 25.865,53.9 C25.955,53.92 26.06,53.93 26.18,53.93 L26.18,53.93 L26.42,53.93 C26.6,53.93 26.745,53.915 26.855,53.885 C26.965,53.855 27.08,53.815 27.2,53.765 C27.32,53.715 27.445,53.675 27.575,53.645 C27.705,53.615 27.88,53.6 28.1,53.6 C28.34,53.6 28.625,53.48 28.955,53.24 C29.285,53 29.62,52.73 29.96,52.43 C30.3,52.13 30.615,51.845 30.905,51.575 C31.195,51.305 31.4,51.14 31.52,51.08 C31.68,50.62 31.84,50.275 32,50.045 C32.16,49.815 32.36,49.55 32.6,49.25 C32.68,49.11 32.775,48.89 32.885,48.59 C32.995,48.29 33.095,47.98 33.185,47.66 C33.275,47.34 33.355,47.045 33.425,46.775 C33.495,46.505 33.53,46.33 33.53,46.25 C33.53,46.11 33.545,45.995 33.575,45.905 C33.605,45.815 33.645,45.71 33.695,45.59 C33.745,45.47 33.785,45.315 33.815,45.125 C33.845,44.935 33.86,44.67 33.86,44.33 C33.86,44.25 33.87,44.125 33.89,43.955 C33.91,43.785 33.935,43.61 33.965,43.43 C33.995,43.25 34.025,43.08 34.055,42.92 C34.085,42.76 34.1,42.65 34.1,42.59 L34.1,42.59 L34.19,41.15 C34.19,41.01 34.215,40.77 34.265,40.43 C34.315,40.09 34.375,39.735 34.445,39.365 C34.515,38.995 34.575,38.655 34.625,38.345 C34.675,38.035 34.7,37.84 34.7,37.76 C34.7,37.5 34.74,37.065 34.82,36.455 C34.9,35.845 34.94,35.19 34.94,34.49 C34.94,34.43 34.95,34.355 34.97,34.265 C34.99,34.175 35.02,34.08 35.06,33.98 C35.1,33.88 35.14,33.77 35.18,33.65 C35.18,33.23 35.275,32.93 35.465,32.75 C35.655,32.57 36.04,32.48 36.62,32.48 L36.62,32.48 L38.03,32.48 C38.11,32.48 38.215,32.425 38.345,32.315 C38.475,32.205 38.605,32.075 38.735,31.925 C38.865,31.775 38.975,31.625 39.065,31.475 C39.155,31.325 39.2,31.22 39.2,31.16 L39.2,31.16 L39.2,30.56 C39.08,30.52 38.97,30.47 38.87,30.41 C38.77,30.37 38.675,30.33 38.585,30.29 C38.495,30.25 38.42,30.23 38.36,30.23 L38.36,30.23 L37.43,30.23 C37.29,30.23 37.13,30.22 36.95,30.2 C36.77,30.18 36.6,30.13 36.44,30.05 C36.28,29.97 36.145,29.87 36.035,29.75 C35.925,29.63 35.87,29.46 35.87,29.24 C36.05,28.34 36.22,27.51 36.38,26.75 C36.52,26.11 36.66,25.49 36.8,24.89 C36.94,24.29 37.04,23.88 37.1,23.66 C37.24,23.36 37.425,23.13 37.655,22.97 C37.885,22.81 38.12,22.685 38.36,22.595 C38.6,22.505 38.84,22.435 39.08,22.385 C39.32,22.335 39.52,22.28 39.68,22.22 C39.8,22.14 39.93,22.09 40.07,22.07 C40.21,22.05 40.35,22.035 40.49,22.025 C40.63,22.015 40.775,21.985 40.925,21.935 C41.075,21.885 41.22,21.79 41.36,21.65 C41.42,21.61 41.5,21.495 41.6,21.305 C41.7,21.115 41.805,20.905 41.915,20.675 C42.025,20.445 42.115,20.22 42.185,20 C42.255,19.78 42.29,19.61 42.29,19.49 C42.29,19.25 42.225,18.995 42.095,18.725 C41.965,18.455 41.79,18.215 41.57,18.005 C41.35,17.795 41.1,17.635 40.82,17.525 C40.54,17.415 40.25,17.4 39.95,17.48 L39.95,17.48 L39.44,17.48 C39.22,17.48 39.035,17.515 38.885,17.585 C38.735,17.655 38.595,17.74 38.465,17.84 C38.335,17.94 38.21,18.045 38.09,18.155 C37.97,18.265 37.84,18.35 37.7,18.41 C37.4,18.69 37.16,18.95 36.98,19.19 C36.8,19.43 36.57,19.69 36.29,19.97 C36.13,20.09 35.955,20.25 35.765,20.45 C35.575,20.65 35.395,20.87 35.225,21.11 C35.055,21.35 34.91,21.595 34.79,21.845 C34.67,22.095 34.61,22.34 34.61,22.58 C34.61,22.82 34.55,23.075 34.43,23.345 C34.31,23.615 34.2,23.83 34.1,23.99 C34.1,24.13 34.09,24.355 34.07,24.665 C34.05,24.975 34.02,25.325 33.98,25.715 C33.94,26.105 33.89,26.52 33.83,26.96 C33.77,27.4 33.71,27.81 33.65,28.19 C33.59,28.57 33.52,28.9 33.44,29.18 C33.36,29.46 33.28,29.65 33.2,29.75 C33.12,29.95 32.985,30.09 32.795,30.17 C32.605,30.25 32.4,30.305 32.18,30.335 C31.96,30.365 31.74,30.405 31.52,30.455 C31.3,30.505 31.13,30.6 31.01,30.74 C30.85,30.86 30.755,30.995 30.725,31.145 C30.695,31.295 30.68,31.44 30.68,31.58 C30.68,31.8 30.795,31.95 31.025,32.03 C31.255,32.11 31.515,32.18 31.805,32.24 C32.095,32.3 32.355,32.39 32.585,32.51 C32.815,32.63 32.93,32.82 32.93,33.08 C32.89,33.24 32.85,33.4 32.81,33.56 C32.77,33.7 32.74,33.855 32.72,34.025 C32.7,34.195 32.69,34.35 32.69,34.49 C32.63,34.73 32.56,35.06 32.48,35.48 C32.4,35.9 32.32,36.36 32.24,36.86 C32.16,37.36 32.075,37.87 31.985,38.39 C31.895,38.91 31.815,39.385 31.745,39.815 C31.675,40.245 31.62,40.61 31.58,40.91 C31.54,41.21 31.52,41.38 31.52,41.42 L31.52,41.42 L31.52,41.99 C31.52,42.09 31.49,42.33 31.43,42.71 C31.37,43.09 31.285,43.535 31.175,44.045 C31.065,44.555 30.945,45.095 30.815,45.665 C30.685,46.235 30.55,46.76 30.41,47.24 C30.27,47.72 30.14,48.13 30.02,48.47 C29.9,48.81 29.79,48.99 29.69,49.01 C29.39,49.35 29.085,49.615 28.775,49.805 C28.465,49.995 28.1,50.09 27.68,50.09 L27.68,50.09 L27.02,50.09 C26.96,50.09 26.87,50.085 26.75,50.075 C26.63,50.065 26.52,50.04 26.42,50 C26.3,49.98 26.17,49.95 26.03,49.91 L26.03,49.91 L25.28,49.67 C25.24,49.63 25.185,49.585 25.115,49.535 C25.045,49.485 24.99,49.44 24.95,49.4 C24.87,49.34 24.81,49.29 24.77,49.25 L24.77,49.25 L24.26,49.25 C24.1,49.25 23.89,49.315 23.63,49.445 C23.37,49.575 23.12,49.72 22.88,49.88 C22.64,50.04 22.435,50.205 22.265,50.375 C22.095,50.545 22.01,50.67 22.01,50.75 C21.95,50.81 21.86,50.93 21.74,51.11 C21.62,51.29 21.5,51.48 21.38,51.68 C21.26,51.88 21.155,52.065 21.065,52.235 C20.975,52.405 20.93,52.52 20.93,52.58 C20.93,52.8 21.025,52.985 21.215,53.135 C21.405,53.285 21.625,53.415 21.875,53.525 C22.125,53.635 22.37,53.715 22.61,53.765 C22.85,53.815 23.01,53.84 23.09,53.84 C23.15,53.84 23.27,53.85 23.45,53.87 C23.63,53.89 23.825,53.91 24.035,53.93 C24.245,53.95 24.45,53.97 24.65,53.99 C24.85,54.01 25,54.02 25.1,54.02 Z M43.8,44.84 C43.86,44.84 43.95,44.835 44.07,44.825 C44.19,44.815 44.31,44.785 44.43,44.735 C44.55,44.685 44.655,44.605 44.745,44.495 C44.835,44.385 44.88,44.22 44.88,44 C44.88,43.7 44.78,43.52 44.58,43.46 C44.38,43.4 44.16,43.34 43.92,43.28 C43.68,43.22 43.46,43.09 43.26,42.89 C43.06,42.69 42.96,42.31 42.96,41.75 C42.96,41.67 42.985,41.46 43.035,41.12 C43.085,40.78 43.14,40.43 43.2,40.07 C43.28,39.65 43.36,39.18 43.44,38.66 L43.44,38.66 L43.44,36.59 C43.44,36.47 43.47,36.285 43.53,36.035 C43.59,35.785 43.665,35.54 43.755,35.3 C43.845,35.06 43.94,34.85 44.04,34.67 C44.14,34.49 44.22,34.4 44.28,34.4 C44.36,34.4 44.45,34.47 44.55,34.61 C44.65,34.75 44.74,34.915 44.82,35.105 C44.9,35.295 44.97,35.485 45.03,35.675 C45.09,35.865 45.12,36 45.12,36.08 L45.12,36.08 L45.12,36.41 C45.12,36.75 45.17,37.11 45.27,37.49 C45.37,37.87 45.495,38.255 45.645,38.645 C45.795,39.035 45.96,39.42 46.14,39.8 C46.32,40.18 46.48,40.55 46.62,40.91 L46.62,40.91 L46.86,42.74 C47.04,43.04 47.165,43.27 47.235,43.43 C47.305,43.59 47.46,43.67 47.7,43.67 C47.86,43.67 47.97,43.645 48.03,43.595 C48.09,43.545 48.2,43.35 48.36,43.01 C48.46,42.87 48.585,42.695 48.735,42.485 C48.885,42.275 49.04,42.03 49.2,41.75 C49.26,41.61 49.32,41.435 49.38,41.225 C49.44,41.015 49.51,40.805 49.59,40.595 C49.67,40.385 49.765,40.18 49.875,39.98 C49.985,39.78 50.12,39.62 50.28,39.5 C50.296,39.472 50.3136,39.4416 50.3328,39.4088 L50.5488,39.0488 L50.5488,39.0488 L50.64,38.9 C50.8,38.64 50.975,38.35 51.165,38.03 C51.355,37.71 51.555,37.385 51.765,37.055 C51.975,36.725 52.165,36.425 52.335,36.155 C52.505,35.885 52.655,35.665 52.785,35.495 C52.915,35.325 53,35.24 53.04,35.24 C53.12,35.24 53.195,35.31 53.265,35.45 C53.335,35.59 53.4,35.755 53.46,35.945 C53.52,36.135 53.565,36.325 53.595,36.515 C53.625,36.705 53.64,36.84 53.64,36.92 L53.64,36.92 L53.64,39.74 C53.64,39.88 53.695,40.13 53.805,40.49 C53.915,40.85 53.97,41.16 53.97,41.42 C53.97,41.5 53.965,41.605 53.955,41.735 C53.945,41.865 53.925,41.995 53.895,42.125 C53.865,42.255 53.805,42.365 53.715,42.455 C53.625,42.545 53.51,42.59 53.37,42.59 L53.37,42.59 L51.63,42.59 C51.21,42.59 50.925,42.755 50.775,43.085 C50.625,43.415 50.55,43.72 50.55,44 C50.55,44.26 50.615,44.41 50.745,44.45 C50.875,44.49 51.09,44.51 51.39,44.51 C51.45,44.51 51.59,44.5 51.81,44.48 C52.03,44.46 52.265,44.44 52.515,44.42 L52.76,44.4 C52.92,44.3866667 53.0733333,44.3733333 53.22,44.36 C53.44,44.34 53.58,44.33 53.64,44.33 L53.64,44.33 L55.05,44.33 L57.54,44.51 C57.7,44.41 57.86,44.355 58.02,44.345 C58.18,44.335 58.33,44.33 58.47,44.33 L58.47,44.33 L59.55,44.33 C60.11,44.33 60.39,44.03 60.39,43.43 C60.39,43.13 60.215,42.925 59.865,42.815 C59.515,42.705 59.135,42.605 58.725,42.515 C58.315,42.425 57.935,42.31 57.585,42.17 C57.235,42.03 57.06,41.78 57.06,41.42 L57.06,41.42 L57.06,40.58 L56.7,39.74 C56.7,39.62 56.66,39.425 56.58,39.155 C56.5,38.885 56.46,38.61 56.46,38.33 L56.46,38.33 L56.55,37.34 C56.55,37.2 56.545,37.07 56.535,36.95 C56.525,36.83 56.47,36.71 56.37,36.59 C56.33,36.49 56.28,36.38 56.22,36.26 C56.16,36.14 56.13,35.97 56.13,35.75 L56.13,35.75 L56.13,31.58 C56.13,31.38 56.135,31.16 56.145,30.92 C56.155,30.68 56.2,30.46 56.28,30.26 C56.36,30.06 56.475,29.895 56.625,29.765 C56.775,29.635 57,29.57 57.3,29.57 C57.4,29.47 57.58,29.4 57.84,29.36 C57.94,29.34 58.06,29.33 58.2,29.33 L58.2,29.33 L58.71,29.33 C58.79,29.33 58.895,29.285 59.025,29.195 C59.155,29.105 59.285,29 59.415,28.88 C59.545,28.76 59.655,28.64 59.745,28.52 C59.835,28.4 59.88,28.31 59.88,28.25 C59.88,27.83 59.77,27.43 59.55,27.05 C59.33,26.67 58.88,26.48 58.2,26.48 C57.96,26.58 57.73,26.67 57.51,26.75 C57.29,26.81 57.06,26.865 56.82,26.915 C56.58,26.965 56.32,26.99 56.04,26.99 L56.04,26.99 L55.62,26.75 L54.45,26.75 C54.17,26.83 53.97,26.97 53.85,27.17 C53.73,27.37 53.645,27.585 53.595,27.815 C53.545,28.045 53.51,28.275 53.49,28.505 C53.47,28.735 53.43,28.92 53.37,29.06 C53.09,29.48 52.825,29.845 52.575,30.155 C52.325,30.465 52.2,30.83 52.2,31.25 C51.8,32.25 51.345,33.3 50.835,34.4 C50.325,35.5 49.92,36.56 49.62,37.58 C49.56,37.64 49.495,37.715 49.425,37.805 C49.355,37.895 49.3,37.98 49.26,38.06 C49.2,38.14 49.15,38.23 49.11,38.33 C49.01,38.33 48.88,38.125 48.72,37.715 C48.56,37.305 48.375,36.77 48.165,36.11 C47.955,35.45 47.735,34.705 47.505,33.875 C47.275,33.045 47.04,32.21 46.8,31.37 C46.56,30.53 46.325,29.735 46.095,28.985 C45.865,28.235 45.65,27.6 45.45,27.08 L45.45,27.08 L44.61,26.75 L42.63,26.75 C42.57,26.75 42.53,26.765 42.51,26.795 C42.49,26.825 42.46,26.865 42.42,26.915 C42.38,26.965 42.315,27.005 42.225,27.035 C42.135,27.065 41.99,27.08 41.79,27.08 L41.79,27.08 L41.04,27.08 C40.84,27.08 40.67,27.1 40.53,27.14 C40.39,27.18 40.27,27.23 40.17,27.29 C40.07,27.35 40.02,27.44 40.02,27.56 L40.02,27.56 L40.02,27.89 C40.12,28.07 40.255,28.205 40.425,28.295 C40.595,28.385 40.74,28.48 40.86,28.58 C41.02,28.7 41.19,28.82 41.37,28.94 C41.55,29.06 41.69,29.19 41.79,29.33 C41.89,29.65 41.98,29.94 42.06,30.2 C42.14,30.42 42.21,30.635 42.27,30.845 C42.33,31.055 42.36,31.19 42.36,31.25 L42.36,31.25 L42.36,31.91 C42.36,32.05 42.35,32.18 42.33,32.3 C42.31,32.42 42.28,32.53 42.24,32.63 L42.24,32.63 L42.12,32.99 L42.12,33.83 C42.06,34.03 42,34.22 41.94,34.4 C41.9,34.56 41.865,34.72 41.835,34.88 C41.805,35.04 41.79,35.16 41.79,35.24 L41.79,35.24 L41.79,36.59 C41.79,36.75 41.78,36.91 41.76,37.07 C41.74,37.21 41.71,37.345 41.67,37.475 C41.63,37.605 41.58,37.7 41.52,37.76 L41.52,37.76 L41.52,39.17 C41.52,39.25 41.485,39.445 41.415,39.755 C41.345,40.065 41.26,40.405 41.16,40.775 C41.06,41.145 40.94,41.505 40.8,41.855 C40.66,42.205 40.52,42.45 40.38,42.59 C40.1,42.63 39.85,42.67 39.63,42.71 C39.43,42.75 39.24,42.78 39.06,42.8 C38.88,42.82 38.76,42.83 38.7,42.83 L38.7,42.83 L38.1,42.83 C38.04,42.83 37.92,42.85 37.74,42.89 C37.56,42.93 37.375,43 37.185,43.1 C36.995,43.2 36.825,43.325 36.675,43.475 C36.525,43.625 36.45,43.8 36.45,44 C36.45,44.08 36.495,44.15 36.585,44.21 C36.675,44.27 36.78,44.325 36.9,44.375 C37.02,44.425 37.14,44.46 37.26,44.48 C37.38,44.5 37.47,44.51 37.53,44.51 L37.53,44.51 L38.1,44.51 C38.24,44.51 38.37,44.48 38.49,44.42 C38.57,44.4 38.64,44.37 38.7,44.33 L38.7,44.33 L39.78,44.33 L42.63,44.84 L43.8,44.84 Z" id="VfM"></path>
        </g>
    </g>
</svg>